PathFileType  4	(X/Y/Z) C:\Users\15086\Documents\GitHub\mocap-processing\BertecTesting2023-09-14\
DataRate	CameraRate	NumFrames	NumMarkers	Units	OrigDataRate	OrigDataStartFrame	OrigNumFrames
  200.0		  200.0		   22		     10		 mm	  200.0	      1	   1900
Frame#	Time	r_calc			r_toe			r_meta			r_ankle			r_mankle			l_calc			l_toe			l_meta			l_ankle			l_mankle			
		X1	Y1	Z1	X2	Y2	Z2	X3	Y3	Z3	X4	Y4	Z4	X5	Y5	Z5	X6	Y6	Z6	X7	Y7	Z7	X8	Y8	Z8	X9	Y9	Z9	X10	Y10	Z10	

1	0.00000	1130.382	151.720	-257.946	1339.583	143.000	-204.009	1290.730	121.164	-166.486	1189.532	194.080	-190.471	1219.215	207.787	-271.894	399.148	351.916	-334.890	508.302	167.458	-356.182	463.394	200.754	-403.421	466.592	328.446	-391.512	492.229	308.421	-313.909
2	0.00500	1151.849	140.220	-261.229	1360.756	141.834	-205.818	1313.040	116.367	-169.273	1208.101	184.221	-192.449	1237.394	200.549	-273.627	392.154	374.192	-334.606	491.353	184.418	-356.925	448.283	220.446	-404.059	458.041	347.613	-391.949	483.494	326.205	-313.987
3	0.01000	1172.533	130.306	-264.173	1380.522	141.529	-207.775	1334.221	112.671	-171.945	1225.110	175.005	-194.188	1254.744	194.483	-274.872	386.396	397.334	-334.016	475.060	202.105	-357.697	434.059	240.761	-404.457	450.274	366.522	-391.929	476.030	344.748	-315.899
4	0.01500	1191.678	122.053	-267.004	1398.890	142.529	-210.112	1353.813	109.887	-174.938	1242.013	168.092	-196.220	1270.512	189.784	-276.187	382.179	420.539	-333.865	460.540	221.014	-358.496	420.896	261.918	-404.859	444.042	386.685	-392.650	468.185	363.479	-314.009
5	0.02000	1209.018	115.545	-269.073	1414.841	143.989	-212.165	1371.793	108.405	-177.531	1256.942	162.009	-197.468	1284.499	185.812	-275.836	379.622	443.860	-333.726	447.338	241.004	-359.042	409.684	283.742	-405.307	439.197	407.013	-393.531	462.568	382.269	-314.244
6	0.02500	1224.090	110.174	-270.451	1428.535	146.195	-214.463	1387.862	107.325	-180.670	1270.433	157.710	-198.399	1296.585	183.569	-276.400	378.696	467.657	-333.951	435.747	261.085	-359.801	400.197	305.999	-405.774	436.194	427.231	-394.438	458.491	401.247	-315.047
7	0.03000	1236.708	106.032	-271.228	1440.550	148.840	-216.981	1401.633	107.229	-183.500	1281.493	154.440	-198.635	1306.421	182.415	-276.649	379.816	490.999	-334.283	426.236	282.012	-360.552	392.718	328.752	-406.331	434.473	448.213	-394.964	455.767	420.789	-314.956
8	0.03500	1246.813	102.803	-271.320	1449.655	150.894	-219.130	1412.680	107.408	-186.052	1290.559	152.246	-199.188	1313.816	181.502	-276.715	382.750	514.475	-334.690	418.141	303.122	-360.991	387.947	350.606	-408.944	434.765	469.135	-395.918	454.918	440.197	-315.830
9	0.04000	1254.187	100.387	-271.181	1456.526	152.718	-221.641	1421.029	107.597	-188.495	1297.079	150.316	-199.378	1319.104	180.816	-276.773	387.326	538.278	-336.155	411.900	324.516	-361.983	383.610	374.798	-407.890	437.056	488.402	-394.774	455.663	459.334	-316.128
10	0.04500	1258.711	98.355	-271.484	1460.518	153.133	-223.602	1425.464	107.035	-190.594	1300.789	148.059	-199.524	1322.354	179.816	-277.006	393.688	560.247	-336.863	407.709	346.326	-361.903	382.011	397.640	-408.558	441.112	507.978	-395.864	457.833	478.281	-316.698
11	0.05000	1260.469	96.563	-271.913	1462.178	152.445	-225.058	1427.342	105.617	-192.316	1302.299	146.044	-199.807	1323.347	178.356	-277.450	401.991	582.209	-337.359	405.157	367.669	-362.247	382.496	419.873	-409.139	446.765	526.889	-396.431	461.783	496.685	-317.046
12	0.05500	1259.564	94.734	-272.937	1461.443	150.522	-226.601	1427.137	103.368	-193.952	1301.369	143.874	-200.522	1322.188	176.627	-278.121	411.830	602.598	-337.485	404.480	388.366	-363.460	385.271	441.275	-410.317	453.710	547.205	-398.316	466.925	514.433	-317.913
13	0.06000	1256.337	92.252	-274.291	1458.427	147.335	-227.770	1424.672	100.091	-195.544	1298.139	141.194	-201.485	1319.062	174.213	-279.087	422.780	622.243	-338.166	405.237	408.082	-364.266	387.911	462.954	-410.716	461.731	563.635	-397.830	473.679	531.369	-318.551
14	0.06500	1250.913	89.394	-275.896	1453.212	142.366	-228.746	1419.399	95.838	-196.748	1292.754	137.951	-202.911	1314.065	170.901	-280.292	435.245	640.742	-338.959	407.970	427.606	-365.210	393.004	483.336	-411.651	474.191	579.350	-398.898	481.840	547.553	-319.377
15	0.07000	1242.711	85.637	-278.070	1446.092	136.535	-229.684	1411.265	90.312	-197.882	1285.234	134.317	-204.104	1306.991	166.688	-281.579	448.896	658.000	-339.507	412.173	446.748	-365.417	399.480	503.531	-412.066	481.865	595.791	-399.373	491.155	562.637	-320.296
16	0.07500	1232.398	82.322	-278.256	1437.135	129.618	-230.715	1401.041	84.071	-198.894	1275.921	130.400	-205.031	1298.286	162.123	-283.074	463.493	674.102	-340.248	418.217	464.636	-367.106	407.788	521.184	-413.307	493.940	611.273	-399.771	501.765	576.662	-321.117
17	0.08000	1220.132	78.614	-279.303	1425.149	120.570	-231.649	1388.575	76.716	-199.576	1264.744	125.934	-206.567	1287.833	157.082	-284.394	479.260	688.762	-341.236	425.187	480.873	-368.548	417.088	538.462	-414.315	507.322	623.403	-401.198	513.402	589.454	-322.114
18	0.08500	1205.741	74.882	-280.171	1412.156	111.798	-232.932	1374.181	68.729	-200.628	1251.736	121.200	-207.599	1275.310	151.248	-286.189	495.814	702.085	-342.288	434.001	496.382	-369.686	427.821	554.289	-415.314	521.239	635.339	-402.234	526.217	601.396	-322.276
19	0.09000	1189.760	71.178	-280.475	1397.300	101.846	-233.839	1358.194	60.347	-201.793	1237.370	116.283	-208.515	1261.554	145.487	-286.547	513.057	713.821	-343.545	443.570	510.684	-369.620	439.608	568.088	-416.804	535.725	645.551	-403.432	539.742	611.736	-323.790
20	0.09500	1172.381	67.380	-280.991	1381.156	91.465	-235.613	1340.794	51.539	-202.922	1221.795	111.351	-209.218	1246.515	139.527	-287.478	530.888	724.173	-344.929	454.578	523.256	-370.779	452.664	580.964	-417.585	551.422	655.177	-404.674	554.116	621.103	-324.498
21	0.10000	1153.801	64.033	-279.782	1363.631	80.664	-237.464	1322.489	42.808	-203.843	1205.483	106.465	-209.432	1230.265	133.650	-289.076	549.118	733.053	-346.640	467.136	534.340	-373.250	466.525	592.650	-418.607	566.467	662.492	-405.688	569.242	629.243	-325.585
22	0.10500	1133.386	61.144	-279.869	1346.692	71.679	-240.754	1302.931	40.607	-201.463	1188.312	101.321	-209.427	1212.660	127.130	-289.609	567.576	740.276	-348.586	479.676	543.487	-375.462	481.248	601.920	-419.942	584.066	668.650	-407.077	584.775	635.794	-327.065
